<?xml version="1.0" encoding="UTF-8"?> <!-- Generator: Adobe Illustrator 24.0.0, SVG Export Plug-In . SVG Version: 6.00 Build 0) --> <svg xmlns="http://www.w3.org/2000/svg" xmlns:xlink="http://www.w3.org/1999/xlink" version="1.1" id="Layer_1" x="0px" y="0px" viewBox="0 0 100 60" style="enable-background:new 0 0 100 60;" xml:space="preserve"> <style type="text/css"> .st0{fill:#CC5252;} </style> <path class="st0" d="M49.6,0.1l-49,17.7c-0.4,0.1-0.7,0.5-0.7,1V59c0,0.6,0.5,1,1,1h12.5c0.6,0,1-0.5,1-1V29.1c0-0.4,0.3-0.8,0.7-1 l26-9.4c0.7-0.2,1.4,0.3,1.4,1V59c0,0.6,0.5,1,1,1h12.5c0.6,0,1-0.5,1-1V19.6c0-0.7,0.7-1.2,1.4-1l26,9.4c0.4,0.1,0.7,0.5,0.7,1V59 c0,0.6,0.5,1,1,1H99c0.6,0,1-0.5,1-1V18.8c0-0.4-0.3-0.8-0.7-1l-49-17.7C50.1,0,49.9,0,49.6,0.1z"></path> </svg> 